<svg class="g-header__logo" viewBox="0 0 232 64" width="82" height="24" xmlns="http://www.w3.org/2000/svg"><path d="M194.57 36.7004H204.83L200.91 19.7778C200.643 18.8878 200.453 17.9764 200.342 17.0537C200.227 16.2982 200.171 15.5348 200.175 14.7706C200.104 16.4797 199.774 18.168 199.195 19.7778L194.57 36.7004ZM210.199 58.3853L207.103 46.95H191.807L188.27 58.3853H170.083L191.033 0.98365H210.895L230.797 58.4343L210.199 58.3853Z" fill="#009083"></path><path fill-rule="evenodd" clip-rule="evenodd" d="M101.08 45.8917C102.02 45.6076 102.912 45.3234 103.725 45C104.539 44.6767 105.313 44.3533 105.959 44.0202L109.703 56.1903C108.037 57.0063 106.326 57.726 104.578 58.3461C102.714 59.0114 100.813 59.5676 98.8846 60.0119C96.8962 60.4717 94.8845 60.825 92.8584 61.0701C90.8066 61.3177 88.7419 61.442 86.6753 61.4425C82.7242 61.5141 78.7901 60.9076 75.0441 59.6493C71.7802 58.5341 68.8257 56.664 66.4211 54.1914C64.4457 52.121 62.8827 49.6933 61.8156 47.0382C61.2317 45.9384 60.7685 44.7787 60.434 43.5792C57.8824 34.6651 58.0976 25.1863 61.0513 16.3972C62.126 12.9797 63.962 9.85043 66.4211 7.24512C68.8263 4.77541 71.7808 2.90869 75.0441 1.79696C78.7934 0.552156 82.7252 -0.0540071 86.6753 0.0037734C88.7468 -0.0186646 90.8162 0.14531 92.8584 0.493715C94.9044 0.740059 96.9358 1.0966 98.9434 1.56179C100.933 2.05173 102.804 2.58087 104.637 3.22759C106.391 3.83078 108.103 4.55097 109.761 5.38334L106.018 17.5535C105.292 17.1858 104.546 16.8586 103.784 16.5736C102.971 16.2503 102.118 15.9661 101.138 15.6819C100.158 15.3978 99.1786 15.1528 98.1987 14.9078C97.2188 14.6628 96.2291 14.4473 95.2591 14.2905C95.1094 14.2663 94.9605 14.2419 94.8124 14.2176C94 14.0844 93.2108 13.955 92.4566 13.8887C91.6478 13.7799 90.8328 13.7243 90.0167 13.7222C88.1726 13.7076 86.3408 14.0229 84.6077 14.653C83.0585 15.2099 81.6992 16.1954 80.6882 17.4947C79.5433 19.047 78.7386 20.8233 78.3267 22.7077C77.6748 25.3296 77.3457 28.0214 77.3468 30.7231V30.8407V30.9681C77.343 33.6668 77.6721 36.3557 78.3267 38.9738C78.7285 40.8615 79.5341 42.6398 80.6882 44.1867C81.7027 45.4847 83.0605 46.4725 84.6077 47.0382C86.3299 47.6199 88.1407 47.8952 89.9579 47.8515C90.6928 47.8515 91.5061 47.8025 92.3978 47.6849C92.494 47.6722 92.5907 47.6596 92.6878 47.6468C93.491 47.5414 94.3261 47.4318 95.2003 47.2832C96.1802 47.1166 97.16 46.9108 98.1399 46.6659C98.2795 46.631 98.4199 46.5961 98.5607 46.561C99.4086 46.3503 100.273 46.1354 101.08 45.8917ZM31.2628 33.898C31.5078 34.8778 31.7136 35.8577 31.8312 36.6612C31.9455 37.4136 32.0012 38.1736 31.9978 38.9346C32.0014 38.1704 32.0835 37.4086 32.2427 36.6612C32.4338 35.7267 32.6792 34.804 32.9776 33.898L43.0214 0.983652H61.0905L38.6316 58.3853H21.7776L1.2 0.983652H21.8266L31.2628 33.898ZM128.222 41.2961H142.538V23.4426L128.222 41.2961ZM159.579 54.4853V64H142.529V54.4853H115.092L111.751 42.276L141.323 6.5102H159.677V40.9727H170.093L165.566 54.4853H159.579Z" fill="currentColor"></path></svg>